Terror by Night (1946) B & W

Director: Roy William Neill

Terror by Night is a 1946 Sherlock Holmes mystery film inspired by Sir Arthur Conan Doyle, loosely based on The Disappearance of Lady Frances Carfax and The Adventure of the Blue Carbuncle. It was directed by Roy William Neill, and stars Basil Rathbone as Sherlock Holmes and Nigel Bruce as Dr. Watson. The story revolves around the theft of a famous diamond aboard a train.

The penultimate entry in Universal's Sherlock Holmes series, Terror by Night takes place almost exclusively on a speeding train, en route from London to Edinburgh. Holmes (Basil Rathbone) is on board to protect a valuable diamond from the clutches of master criminal Colonel Sebastian Moran. The trouble is, Moran is a master of disguise, and could be just about any one of the other passengers. Murder and mayhem plague the train excursion before Holmes can successfully complete his mention. Poor old Dr. Watson (Nigel Bruce) is a bit denser than usual here, though his ingenuousness is cleverly woven into the script. Alan Mowbray, who played Inspector Lestrade in the 1932 Clive Brook adaptation of Sherlock Holmes, is seen in a pivotal supporting role. One of three Holmes entries currently in the public domain, Terror by Night is also available in a computer-colorized version (but stick with the original black-and-white). 

Media Info:
General
Complete name                    : J:\Seeding\Terror by Night (1946)[DVDRip][big_dad_e™]\Terror by Night (1946)[DVDRip][big_dad_e™].avi
Format                           : AVI
Format/Info                      : Audio Video Interleave
File size                        : 933 MiB
Duration                         : 1h 0mn
Overall bit rate                 : 2 166 Kbps
Movie name                       : 031030_1212.Title1.DVDRip
Writing application              : Lavf52.78.4
Original source form/Name        : 031030_1212

Video
ID                               : 0
Format                           : MPEG-4 Visual
Format profile                   : Advanced Simple@L5
Format settings, BVOP            : 2
Format settings, QPel            : No
Format settings, GMC             : No warppoints
Format settings, Matrix          : Default (H.263)
Muxing mode                      : Packed bitstream
Codec ID                         : XVID
Codec ID/Hint                    : XviD
Duration                         : 1h 0mn
Bit rate                         : 1 833 Kbps
Width                            : 640 pixels
Height                           : 480 pixels
Display aspect ratio             : 4:3
Frame rate                       : 29.970 fps
Color space                      : YUV
Chroma subsampling               : 4:2:0
Bit depth                        : 8 bits
Scan type                        : Progressive
Compression mode                 : Lossy
Bits/(Pixel*Frame)               : 0.199
Stream size                      : 789 MiB (85%)
Writing library                  : XviD 1.2.1 (UTC 2008-12-04)

Audio
ID                               : 1
Format                           : MPEG Audio
Format version                   : Version 1
Format profile                   : Layer 3
Mode                             : Joint stereo
Mode extension                   : MS Stereo
Codec ID                         : 55
Codec ID/Hint                    : MP3
Duration                         : 1h 0mn
Bit rate mode                    : Constant
Bit rate                         : 320 Kbps
Channel(s)                       : 2 channels
Sampling rate                    : 48.0 KHz
Compression mode                 : Lossy
Stream size                      : 138 MiB (15%)
Alignment                        : Aligned on interleaves
Interleave, duration             : 24 ms (0.72 video frame)
Interleave, preload duration     : 24 ms
Writing library                  : LAME3.98.4

File Scan:
Malwarebytes' Anti-Malware 1.50.1.1100
www.malwarebytes.org

Database version: 6281
4/5/2011 9:57:54 PM
mbam-log-2011-04-05 (21-57-54).txt

Scan type: Quick scan
Objects scanned: 5
Time elapsed: 19 second(s)

Memory Processes Infected: 0
Memory Modules Infected: 0
Registry Keys Infected: 0
Registry Values Infected: 0
Registry Data Items Infected: 0
Folders Infected: 0
Files Infected: 0

Memory Processes Infected:
(No malicious items detected)

Memory Modules Infected:
(No malicious items detected)

Registry Keys Infected:
(No malicious items detected)

Registry Values Infected:
(No malicious items detected)

Registry Data Items Infected:
(No malicious items detected)

Folders Infected:
(No malicious items detected)

Files Infected:
(No malicious items detected)

When using TPB please read these important notes:
  
01- Anti-malware apps may warn about keygens, patches, cracks, etc., because of 
    their capabilities, (generating codes, etc.). Sometimes they're added to 
    the virus/spyware database and will be detected as malware. If you don't trust
    the keygens, patches, cracks, etc., don't use them. 
    
02- Before running .exe-files, keygens, patches, cracks, etc., always check first 
    if they can be unpacked. Often some third party added a virus to the 
    original file, repacked it and uploaded it again.

03- Letting anti-malware apps send scan results to their companies can cause
    keygens, patches, cracks, etc., to be added to their virus-database.

04- Firewalls which are set to automatically determine connections will allow 
    apps & malware!. Avoid this by manually configuring your firewall.

05- Usually (new) torrents with many downloads and seeders in a brief period is
    suspicious! Torrents with the Skull & Crossbones icon are trusted.

06- Some people use multiple accounts and post fake comments 
    and/or files trying to spread confusion. They seldom seriously
    comment or have any torrents, or a just a few to look passable.

07- Clicking on unknown links can cause malware to be installed on your machine.
  
08- In general often there are more fake and negative comments than reliable and
    positive comments.

09- In some countries uploading/downloading copyright protected material is 
    forbidden, but showing some appreciation to reliable up-loaders is not.

10- Posting fake and negative comments or fake/infected uploads on TPB can result
    in getting banned from TPB!

Requests?  Find me on SuprBay. http://forum.suprbay.org
 

For reporting bad or suspicious torrents:  
http://forum.suprbay.org/forumdisplay.php?fid=29

For more of my torrents: 
https://thepiratebay.org/user/big_dad_e/  (Secured)

All torrents scanned with:
Norton Anti-virus
Malwarebytes' Anti-malware
 
http://www.pirate-party.us/

ALWAYS SEED & THANKS SEEDERS!